<svg width="520" height="520" viewBox="0 0 520 520" fill="none" xmlns="http://www.w3.org/2000/svg">
<g filter="url(#filter0_d_368_2069)">
<rect x="4" width="512" height="512" rx="60" fill="#FAF4EB"/>
<path d="M235.727 123.206C271.356 113.765 307.947 113.383 340.934 130.791C442.411 184.399 397.333 330.724 297.634 352.862C224.085 369.197 144.451 314.262 146.901 228.366C148.39 176.559 191.498 134.92 235.727 123.206ZM233.693 184.363L219.681 186.8C217.295 187.218 214.397 190.638 213.004 191.239C210.906 192.13 207.815 190.857 204.453 192.785C199.12 195.823 198.367 201.534 195.757 205.573C194.06 208.21 190.953 209.302 189.112 211.794C183.155 219.871 184.564 223.818 184.34 232.604C184.228 236.897 181.457 241.117 185.429 245.61C187.943 248.466 190.777 252.923 192.314 254.487C192.987 255.178 200.193 259.362 200.994 259.435C202.803 259.581 205.237 257.853 207.447 257.452C209.449 257.088 211.755 257.798 213.324 257.289C215.934 256.434 218.032 252.796 222.355 252.104C227.688 251.268 226.423 255.542 228.793 256.07C230.987 256.561 233.821 253.796 236.111 255.633C239.458 258.307 236.255 265.092 237.328 268.603C238.177 271.332 242.516 273.369 244.422 275.861C246.119 278.099 249.802 286.648 250.251 289.322C250.523 290.978 248.137 292.869 247.929 295.38C247.192 304.566 252.012 303.675 254.959 308.786C258.754 315.353 259.667 315.917 263.59 321.41C265.672 324.321 265.672 328.996 269.947 328.359C276.865 327.341 287.77 323.048 290.796 315.444C291.693 313.206 291.181 310.769 291.581 309.914C292.686 307.495 299.123 307.149 294.351 299.018C296.689 295.507 305.513 290.687 305.673 287.03C305.993 279.427 300.645 272.023 301.365 266.384C302.246 259.581 315.361 248.066 318.419 240.517C319.332 238.279 322.519 227.038 320.902 225.673C317.747 226.437 308.667 232.968 306.169 230.821C305.241 230.039 304.904 227.638 303.623 226.292C300.404 222.927 293.839 218.997 291.245 214.777C290.332 213.286 290.412 211.066 289.435 209.738C288.266 208.138 279.155 198.06 279.715 197.096C281.797 193.458 289.852 203.554 291.613 205.445C293.231 207.173 301.189 215.723 301.846 216.815C303.111 218.997 304.2 227.183 306.746 226.947C309.868 223.581 315.825 221.435 318.884 218.706C320.421 217.342 320.469 215.487 321.734 214.395C322.903 213.395 324.569 213.304 325.786 212.249C327.019 211.175 330.429 202.098 330.349 200.971C330.045 196.932 322.343 197.933 322.663 193.367C319.524 194.367 319.188 199.679 314.56 198.133C313.391 193.858 312.206 196.186 311.278 195.386C310.285 194.531 303.271 188.11 306.618 186.764C308.988 185.8 312.703 192.385 317.122 192.312C318.996 192.294 320.421 190.747 321.75 190.857C322.967 190.966 324.665 193.149 327.659 193.221C330.942 193.312 334.241 192.075 337.507 191.712L346.571 199.552L348.012 197.442L360.951 222.454C364.378 222.672 364.394 213.413 364.186 211.084C364.041 209.356 362.52 207.883 362.728 205.9C362.856 204.718 365.579 201.171 366.091 197.751C366.604 194.331 364.346 193.531 368.749 190.093C371.183 193.33 373.265 197.223 375.747 200.407C376.436 201.28 377.957 201.189 378.902 202.644C379.686 203.863 379.735 205.827 380.567 206.919C381.144 207.683 382.505 206.537 383.193 207.283C384.555 208.756 384.571 212.158 386.636 213.304C387.853 207.337 386.925 203.353 384.074 198.369C382.473 195.55 379.222 193.803 379.542 189.802C379.622 188.874 381.528 189.565 380.855 186.727C378.325 175.849 370.223 169.355 364.282 161.424C360.583 156.476 358.629 151.056 353.697 146.162C337.363 129.973 304.712 117.385 282.486 120.459L284.359 121.532C283.27 124.097 281.349 122.424 279.331 122.878L280.548 125.48L277.217 126.535L280.068 128.372C275.488 128.281 271.917 131.464 267.929 132.92C265.127 133.938 257.761 131.01 253.005 131.301C243.877 131.864 244.39 134.411 238.721 139.505C235.006 142.833 229.593 143.361 231.707 149.928L236.063 147.326C238.625 148.418 237.168 150.455 237.28 152.711C241.187 150.71 243.733 147.472 246.6 144.489L244.806 141.033L250.283 136.339L249.034 143.143L252.445 142.561L252.925 146.217L249.402 146.271C249.61 151.438 242.772 152.62 238.721 153.42C237.728 153.62 236.703 153.711 235.711 153.893L235.935 149.164C234.381 149.273 233.196 149.418 232.876 151.256L233.277 155.239C228.232 155.585 224.245 161.042 219.969 163.152C219.393 163.443 216.975 164.007 218.208 162.552C225.766 159.732 221.106 158.332 220.21 155.076C219.665 153.075 221.667 149.291 219.153 150.182C216.927 151.183 217.167 153.802 215.854 154.93C213.532 156.931 208.92 157.513 208.136 161.952C214.445 164.025 213.228 156.804 217.76 156.058L214.333 162.77L217.952 164.025L212.219 166.427C211.915 169.628 215.021 167.081 215.998 169.155C217.055 171.374 215.422 174.067 213.74 175.34L204.036 176.359C205.205 181.598 199.568 183.398 201.346 189.001L203.876 188.055C204.244 191.293 209.721 188.983 211.835 187.891C215.678 185.909 214.973 183.18 216.158 181.07C216.703 180.124 219.105 179.215 220.178 178.105C221.202 177.068 221.347 175.231 222.003 174.631C223.701 173.048 228.553 173.685 230.794 171.756C235.182 175.049 242.036 174.558 243.237 180.797L243.909 175.977L247.352 175.849C243.525 173.284 239.778 173.685 236.912 169.192C238.433 167.373 246.6 170.956 247.689 172.047C249.258 173.594 253.101 182.052 254.782 182.543L258.225 179.105L254.094 174.212L260.387 173.084C261.908 177.705 263.013 180.561 268.025 180.815C270.059 180.924 270.283 178.96 271.5 178.851C272.525 178.76 273.87 180.197 275.264 179.906C276.657 179.615 277.698 176.977 279.683 177.286C280.1 180.124 281.028 186.363 278.963 188.619C276.977 190.784 274.655 189.347 272.285 189.802C270.924 190.056 269.707 191.202 268.202 191.42C263.686 192.075 254.911 187.273 251.996 191.057C251.211 192.075 251.788 193.64 251.035 194.567C250.091 195.732 245.222 194.695 243.797 194.258C242.644 193.913 241.828 192.33 240.819 192.021C238.641 191.384 235.422 192.639 232.94 190.893L233.709 184.308L233.693 184.363ZM223.38 133.502C222.644 131.555 222.003 132.465 220.882 132.683C216.863 133.429 213.644 135.302 209.929 136.812L211.867 138.34L195.789 147.781L196.366 152.311C201.682 149.491 208.696 146.963 213.628 143.616C214.237 143.197 214.189 142.051 215.069 141.269C215.822 140.596 217.824 140.432 218.064 139.977C218.432 139.304 217.439 137.431 217.808 136.521C218.016 135.994 222.355 134.011 223.364 133.52L223.38 133.502ZM193.211 148.163C182.594 155.458 172.698 168.027 166.165 179.633C165.508 180.797 164.307 181.488 164.916 183.144C170.841 181.252 172.746 176.086 176.83 171.684C179.632 168.646 182.37 165.917 185.205 162.734C188.663 158.859 192.763 155.767 195.341 151.074H192.731L193.227 148.163H193.211ZM185.333 315.88C186.005 314.862 179.952 308.441 179.167 306.803C176.205 300.637 175.805 295.216 170.857 289.322C169.223 287.376 166.725 286.703 165.38 284.174C161.969 277.789 162.754 269.695 158.542 262.327C157.421 260.363 154.859 256.888 152.954 255.706C154.939 277.644 165.012 297.69 179.824 312.461C180.561 313.188 184.452 317.227 185.349 315.88H185.333ZM388.862 235.242C388.974 234.587 386.796 224.073 386.396 222.363C386.188 221.489 385.563 218.979 384.346 219.343C386.973 225.837 383.546 230.967 386.812 237.697C387.245 237.497 388.83 235.387 388.862 235.223V235.242ZM318.131 303.875C318.82 303.056 325.161 284.92 325.449 283.156C325.545 282.555 325.289 277.444 323.992 277.771C322.135 279.19 321.142 282.101 319.749 283.501C318.131 285.138 313.071 287.849 312.911 288.249C312.479 289.322 313.76 292.797 313.503 294.889C313.119 297.981 309.148 300.455 312.607 306.021C314.448 305.839 316.818 305.457 318.131 303.875ZM371.28 290.232L374.146 279.39C371.424 284.993 371.536 282.573 368.125 283.356C367.757 283.447 361.495 285.648 361.175 285.866C354.882 290.159 349.485 300.509 346.379 307.695C346.042 308.477 346.715 309.914 346.315 310.842C346.107 311.315 343.112 312.497 344.89 313.607C346.459 314.589 363.225 300.837 365.915 298.69L366.395 302.365L374.738 290.104L371.296 290.232H371.28Z" fill="#2F5F4A"/>
<path d="M276.689 155.186C278.642 156.823 274.815 158.751 275.504 159.187C277.377 160.37 282.037 161.225 284.183 162.462C287.706 164.481 281.589 166.918 279.667 167.046C277.473 167.191 274.671 165.081 272.413 165.554C271.132 165.809 264.583 170.447 263.894 169.793C263.862 168.155 263.606 167.028 261.957 167.119L265.864 158.46C269.963 156.841 269.979 163.426 274.639 159.351L271.853 157.95L276.689 155.204V155.186Z" fill="#2F5F4A"/>
<path d="M297.186 152.601C297.266 154.475 293.919 154.165 295.248 157.149C295.633 158.022 298.707 159.004 299.956 160.205C302.598 162.751 304.024 168.536 308.043 168.863C307.322 172.738 301.029 171.064 299.284 168.954L298.627 168.099C301.99 161.078 295.04 161.878 291.854 157.676C292.11 154.656 294.448 152.528 297.186 152.601Z" fill="#2F5F4A"/>
<path d="M330.157 294.598C329.437 294.634 329.485 295.725 329.485 295.725C329.485 295.725 329.613 296.271 329.965 296.526C330.317 296.781 330.59 296.853 330.958 296.853C331.326 296.853 331.631 296.653 331.502 295.907C331.374 295.162 330.974 294.907 330.766 294.798C330.558 294.689 330.141 294.598 330.141 294.598H330.157Z" fill="white"/>
<path d="M333.728 293.033C333.728 293.033 333.664 293.215 333.488 293.597C333.312 293.979 333.024 294.306 333.2 294.415C333.376 294.524 333.728 294.706 333.984 294.488C334.241 294.27 334.449 294.324 334.433 293.87C334.417 293.415 334.337 293.033 334.177 292.978C334.016 292.924 333.808 292.887 333.744 293.051L333.728 293.033Z" fill="white"/>
<path d="M354.642 276.533L336.178 317.935L366.556 306.002L380.167 285.192L378.95 273.496L354.642 276.533Z" fill="#2F5F4A"/>
<path d="M133.305 191.33C116.62 208.793 101.183 228.729 92.1832 252.741C63.3912 329.432 113.737 374.418 173.851 390.462C267.529 415.456 395.059 381.13 467.584 308.459C471.139 304.893 474.758 301.183 477.976 297.235C481.387 293.033 484.238 288.231 487.44 283.829C487.809 283.338 488.417 282.01 488.337 283.72C463.965 336.399 412.306 373.363 364.234 394.118C293.167 424.788 217.504 443.724 143.218 417.802C80.3333 395.865 28.5141 349.006 61.1814 274.806C75.5934 242.081 104.289 211.503 131.384 192.221C131.992 191.784 132.473 191.129 133.305 191.33Z" fill="#2F5F4A"/>
<path d="M150.616 369.398C157.341 371.308 163.987 373.781 170.793 375.4C256.624 395.665 374.61 350.934 425.453 267.912C470.274 194.695 440.986 125.735 370.046 100.759C335.073 88.4439 295.729 87.4798 259.763 93.8647C252.653 95.1198 247.24 96.3568 240.258 97.521C239.746 97.6119 233.821 98.7579 233.213 98.6306C252.156 91.9547 272.862 87.4798 292.99 84.9695C339.077 79.203 391.825 85.3333 431.938 113.601C490.211 154.658 497.929 231.349 454.709 290.487C391.424 377.074 249.594 410.254 158.27 373.363C155.804 372.363 152.585 371.289 150.616 369.434V369.398Z" fill="#2F5F4A"/>
<path d="M364.218 129.537L351.183 121.77C299.524 97.1581 220.898 102.306 169.415 148.165C162.946 153.931 152.297 164.918 145.972 169.866C142.721 172.394 132.056 176.669 128.71 178.688C83.8082 205.847 60.6048 230.077 27.2811 273.989C26.8647 274.535 27.2811 275.408 26 275.044C31.7968 262.692 37.7218 250.341 44.8797 238.917C85.8419 173.65 171.433 118.168 240.515 104.453C282.149 96.194 329.421 100.432 364.218 129.556V129.537Z" fill="#2F5F4A"/>
<path d="M122.576 223.218C113.769 280.645 131.144 333.944 189.656 355.736C213.34 364.559 237.68 368.47 262.629 367.178C266.104 366.996 269.803 365.85 273.358 365.832C273.999 365.832 274.447 365.323 274.719 366.578C266.744 367.96 258.706 369.506 250.683 370.452C207.287 375.546 150.504 371.125 119.982 330.906C101.615 306.713 101.391 273.988 111.655 245.683C111.96 244.846 120.863 226.219 122.592 223.218H122.576Z" fill="#2F5F4A"/>
<path d="M401.801 285.138C414.772 267.53 422.682 244.027 425.453 221.289C432.402 164.134 400.776 118.003 353.441 102.741L330.59 96.9746C377.557 101.959 431.153 136.012 436.406 194.422C439.208 225.582 425.276 256.379 407.71 279.226C406.701 280.536 404.715 283.319 403.771 284.301C403.114 284.993 402.746 285.32 401.785 285.12L401.801 285.138Z" fill="#2F5F4A"/>
<path d="M455.205 299.746C454.997 298.691 455.718 298.418 456.182 297.781C458.873 294.161 461.963 290.814 464.573 287.103C508.274 224.983 494.022 144.889 432.771 107.562L419.592 99.7949C426.974 102.633 434.628 107.289 441.306 111.91C461.995 126.226 480.41 147.472 488.689 173.794C503.518 220.926 485.679 267.276 455.189 299.764L455.205 299.746Z" fill="#2F5F4A"/>
<path d="M280.035 429.935L308.491 423.769C363.721 408.943 417.798 381.33 460.746 338.873C460.922 339.928 460.185 340.183 459.689 340.783C456.134 345.167 450.369 350.806 446.286 354.735C400.44 398.738 339.141 422.059 280.035 429.917V429.935Z" fill="#2F5F4A"/>
<path d="M172.858 122.807L156.028 131.484C108.565 157.696 64.2238 194.496 33.9265 244.138C34.551 241.809 36.0403 239.517 37.1772 237.444C39.3871 233.442 41.9492 229.258 44.3992 225.42C65.2166 192.877 91.7827 168.629 122.592 149.11C138.654 138.942 155.58 129.992 172.858 122.807Z" fill="#2F5F4A"/>
<path d="M64.2079 376.565C46.0808 359.539 37.8339 335.655 40.7964 311.752C42.7019 296.417 49.0112 280.81 57.2901 267.585C57.6104 267.167 58.2509 266.494 58.2189 266.621C58.1228 267.058 57.0659 269.059 56.8898 269.441C55.3045 272.933 53.3348 276.117 51.8296 279.791C41.7572 304.258 40.9085 337.201 53.4789 360.994L64.2079 376.547V376.565Z" fill="#2F5F4A"/>
</g>
<defs>
<filter id="filter0_d_368_2069" x="0" y="0" width="520" height="520" filterUnits="userSpaceOnUse" color-interpolation-filters="sRGB">
<feFlood flood-opacity="0" result="BackgroundImageFix"/>
<feColorMatrix in="SourceAlpha" type="matrix" values="0 0 0 0 0 0 0 0 0 0 0 0 0 0 0 0 0 0 127 0" result="hardAlpha"/>
<feOffset dy="4"/>
<feGaussianBlur stdDeviation="2"/>
<feComposite in2="hardAlpha" operator="out"/>
<feColorMatrix type="matrix" values="0 0 0 0 0 0 0 0 0 0 0 0 0 0 0 0 0 0 0.25 0"/>
<feBlend mode="normal" in2="BackgroundImageFix" result="effect1_dropShadow_368_2069"/>
<feBlend mode="normal" in="SourceGraphic" in2="effect1_dropShadow_368_2069" result="shape"/>
</filter>
</defs>
</svg>
