<svg width="520" height="520" viewBox="0 0 520 520" fill="none" xmlns="http://www.w3.org/2000/svg">
<g filter="url(#filter0_d_203_1929)">
<rect x="4" width="512" height="512" rx="60" fill="#FAF4EB"/>
<g filter="url(#filter1_d_203_1929)">
<mask id="mask0_203_1929" style="mask-type:luminance" maskUnits="userSpaceOnUse" x="54" y="50" width="412" height="412">
<path d="M54 50H466V462H54V50Z" fill="white"/>
</mask>
<g mask="url(#mask0_203_1929)">
<path d="M263.034 462.652C149.485 462.652 57.0405 370.215 57.0405 256.666C57.0405 143.118 149.485 50.6733 263.034 50.6733C376.582 50.6733 469.02 143.118 469.02 256.666C469.02 370.215 376.582 462.652 263.034 462.652ZM263.034 71.9997C151.11 71.9997 60.0891 144.743 60.0891 256.666C60.0891 368.59 151.11 444 263.034 444C374.957 444 465.978 368.59 465.978 256.666C465.978 144.743 374.957 71.9997 263.034 71.9997Z" fill="#2E5F4A"/>
<g filter="url(#filter2_d_203_1929)">
<path fill-rule="evenodd" clip-rule="evenodd" d="M269.965 423.01C404.16 364.378 305.951 275.26 379.174 166.927C385.653 218.858 398.66 275.205 369.861 330.135C399.312 283.698 413.576 186.087 371.819 143.024C360.937 131.809 348.25 121.899 333.986 113.788C257.66 70.5659 161.792 93.5382 112.965 164.469C160.757 89.9479 259.076 65.0104 337.035 109.219C352.931 118.198 366.764 129.413 378.41 142.212C382.056 146.177 385.486 150.316 388.646 154.622C427.729 206.448 434.701 278.524 400.674 338.573C372.472 388.274 322.826 418.108 269.965 423.01Z" fill="#2E5F4A"/>
</g>
<g filter="url(#filter3_d_203_1929)">
<mask id="mask1_203_1929" style="mask-type:luminance" maskUnits="userSpaceOnUse" x="98" y="100" width="230" height="312">
<path d="M98 100.031H327.583V411.142H98V100.031Z" fill="white"/>
</mask>
<g mask="url(#mask1_203_1929)">
<path fill-rule="evenodd" clip-rule="evenodd" d="M185.675 125.37C185.188 127.766 185.952 130.162 187.036 131.634C188.022 131.308 189.327 130.273 190.084 129.565C190.029 127.982 189.376 127.877 188.723 126.627C187.8 124.933 187.688 125.266 185.675 125.37ZM179.633 130.329C180.938 130.975 182.251 130.975 182.959 129.565C183.987 125.975 180.07 124.933 178.383 127.329C177.404 128.801 178.383 129.676 179.633 130.329ZM178.161 151.725C178.494 150.412 178.876 151.447 178.598 148.454C176.751 147.857 175.334 148.127 174.029 149.544C172.015 151.725 173.647 152.1 172.994 153.954C171.362 154.169 171.577 153.572 169.779 154.169C168.529 157.489 171.362 157.218 172.779 158.419C173.32 158.85 173.536 159.287 174.029 159.669C179.959 158.801 177.841 153.023 178.161 151.725ZM188.945 146.218C187.258 145.732 185.348 144.586 182.251 146.329C180.834 147.037 180.668 150.85 180.668 152.426L180.779 154.225L183.612 154.391C184.64 150.141 184.209 152.593 186.82 150.627C187.744 149.871 187.64 149.266 188.182 148.454C189.05 147.148 189.001 147.961 188.945 146.218ZM187.744 137.509C187.744 140.454 187.64 140.884 188.89 142.905L202.661 141.107C204.404 140.94 208.216 142.357 208.216 136.586C208.216 135.009 206.688 134.134 204.786 134.134C201.57 134.134 197.925 138.218 194.445 137.079C192.591 136.482 194.494 136.752 191.772 136.419L191.557 136.37L191.175 136.259C191.938 134.572 192.591 136.808 192.591 134.357C192.591 132.773 190.737 132.718 189.272 132.669C187.64 132.614 186.223 132.391 184.862 132.558C183.175 132.829 183.612 134.572 184.64 135.495C185.57 136.315 187.091 136.315 187.744 137.509ZM172.119 138.002C171.577 140.287 171.959 141.322 174.897 143.336C175.55 143.829 176.695 143.989 177.73 143.718C180.07 143.12 179.855 141.87 179.904 141.433L182.904 143.607C185.786 142.794 186.98 141.759 185.459 139.093L182.848 138.87C181.869 137.079 181.591 134.405 178.598 136.315C176.48 137.676 175.334 138.002 172.119 138.002ZM151.161 147.641C151.98 150.794 157.751 152.155 160.855 150.627C163.14 149.544 162.598 148.183 164.772 147.53C166.57 147.037 165.695 147.204 166.952 146.28C167.661 145.732 168.855 145.461 169.452 144.968C169.397 142.627 169.07 142.843 167.55 141.975C167.876 141.107 167.82 141.433 167.605 139.857C163.626 139.69 165.536 141.808 164.008 144.586L160.418 142.572C158.89 141.377 158.563 140.94 156.661 142.357C154.918 143.662 151.869 145.787 151.161 147.641ZM222.807 315.746C220.522 314.44 213.82 313.461 212.897 319.343C214.473 319.614 214.418 319.121 215.945 319.773C218.723 320.864 222.48 319.725 224.112 318.523C224.112 317.433 223.945 316.398 222.807 315.746ZM212.355 313.405C211.098 312.968 210.341 312.204 208.98 311.502C207.779 310.905 206.362 310.357 205.279 309.808C195.425 305.127 196.133 307.69 192.591 307.746V310.683C197.654 310.301 198.577 310.141 204.188 313.134C207.397 314.877 206.091 315.252 208.105 315.419L208.813 315.475C209.195 315.586 212.077 318.357 212.355 313.405ZM312.411 182.371C313.827 182.044 314.154 181.607 315.3 183.19C315.077 184.114 315.675 183.621 314.098 184.002C315.077 189.225 315.355 185.204 315.57 188.412C317.425 188.794 316.876 188.357 317.425 190.315C321.994 190.968 320.036 191.898 322.376 191.898C323.897 191.898 326.619 190.648 327.605 189.989C328.959 189.12 330.487 187.218 331.633 186.78C331.633 184.002 331.14 182.586 329.619 181.009C325.64 176.926 326.515 179.975 324.605 179.975H317.64C316.008 179.975 317.911 178.78 314.376 178.343C313.23 179.864 312.737 179.752 312.411 182.371ZM251.932 146.169C252.529 149.711 249.265 150.03 251.716 153.023C254.057 152.864 253.126 151.725 255.848 151.447C256.175 151.996 256.286 151.996 256.557 152.593C256.938 153.516 256.501 153.301 257.154 153.954C258.084 154.933 259.605 153.843 258.793 156.565C256.668 156.35 257.536 155.1 255.522 155.1C250.515 155.1 252.369 163.155 254.869 163.155C256.557 163.155 257.376 162.558 258.682 162.009C258.682 160.648 258.57 160.648 258.029 159.725H259.661C261.515 165.44 256.341 164.19 255.362 166.905C255.14 167.558 254.543 168.051 254.543 168.919C254.654 182.864 255.084 174.53 256.341 179.864C256.612 181.065 256.883 183.134 256.994 184.6C258.737 184.496 259.223 183.787 260.695 184.273C260.64 185.204 259.661 185.523 259.661 187.273C259.661 190.968 260.043 191.627 262.383 194.343C263.091 195.162 263.855 195.544 264.182 196.364C264.994 198.704 263.577 198.648 266.848 199.405C272.563 200.773 272.452 205.509 276.973 202.079C277.029 198.752 278.112 197.829 278.223 195.218C278.334 192.009 278.876 190.864 280.89 189.558C280.89 187.489 280.73 185.69 281.272 183.891C282.091 181.391 282.522 182.912 283.237 179.864C286.605 179.211 288.73 179.322 291.293 177.419C294.445 175.023 295.751 171.808 296.897 170.933C296.952 170.884 297.55 170.502 297.661 170.447C299.293 169.468 301.529 169.308 303.702 168.815C312.084 167.127 307.188 165.329 312.251 165.329C312.793 164.294 313.445 163.697 313.994 162.718C314.647 161.523 314.48 160.593 315.515 159.829L314.536 156.836C314.154 154.662 313.938 156.183 313.063 154.607C312.737 153.357 313.557 150.627 313.445 149.926C313.175 148.398 312.577 150.086 312.577 148.294C312.577 146.982 313.015 147.315 313.23 147.093C313.716 146.551 313.883 146.495 313.827 146.551C314.098 146.218 313.772 146.6 314.098 146.058C314.536 145.35 314.265 145.572 314.862 144.857C318.022 140.725 315.029 141.433 314.536 138.815C316.057 138.982 315.737 140.016 317.369 140.614C318.452 139.523 318.786 139.252 318.619 137.183C313.938 136.1 316.55 136.482 313.772 134.086C313.612 133.975 308.112 130.218 311.598 130.218C313.015 130.218 313.501 131.141 314.807 130.218C316.057 128.634 312.737 127.058 312.14 126.565C310.945 125.697 309.202 124.773 309.202 122.919C309.202 117.752 313.501 116.28 313.557 112.308C298.147 107.461 303.591 111.433 300.709 111.655L300.813 108.655C296.355 107.134 298.695 108.009 295.209 109.475C294.445 108.495 295.105 108.822 294.501 107.676C294.07 106.808 294.008 107.134 293.577 106.426C293.195 105.884 293.091 105.28 292.813 104.961C292.327 104.308 291.945 104.412 291.612 103.87L314.751 110.836C302.557 106.1 289.709 102.836 276.32 101.252C276.369 101.308 276.432 101.308 276.432 101.308C275.015 104.308 272.07 101.905 270.709 101.905C268.209 101.905 270.112 102.614 267.279 102.947C262.168 103.6 257.098 103.489 252.036 103.162C249.313 102.995 247.682 104.252 244.855 103.815C242.89 103.489 241.313 102.669 239.084 102.947C233.091 103.759 227.98 105.009 222.098 105.989C216.327 106.975 212.459 109.968 206.307 109.968C205.168 111.218 206.036 111.489 203.807 111.655C202.223 111.815 201.411 112.086 200.918 113.398C201.682 114.975 202.223 113.995 202.827 115.572C199.994 115.627 201.411 114.864 199.723 114.864H197.161C196.452 115.301 192.265 119.273 191.612 119.926C190.411 121.232 190.904 121.996 191.668 123.683C193.515 127.662 194.445 126.565 196.675 125.648C197.813 126.947 197.543 126.461 197.494 129.343C196.508 130.051 195.202 130.815 194.334 131.794C194.39 131.85 194.661 132.232 194.772 132.343C196.786 134.572 204.293 132.558 205.709 131.252C207.341 132.009 207.182 132.447 209.411 131.69C214.64 129.78 211.702 129.023 213.661 125.426C214.855 123.301 215.022 123.739 216.813 123.357C218.827 122.87 219.869 117.044 224.55 114.752C227.432 113.398 228.411 112.468 230.918 110.398C232.82 108.877 232.605 109.641 232.661 106.697C234.237 106.593 235.598 106.808 237.557 106.211C238.813 105.829 240.716 105.12 242.188 105.829C242.133 107.134 242.293 106.593 240.223 107.294C237.779 108.114 235.98 109.419 233.584 110.127L233.64 112.412C234.834 112.468 235.543 112.579 236.14 113.398C235.543 114.704 235.327 113.447 234.293 115.572C229.716 115.572 229.286 117.475 225.744 118.509C224.327 118.947 223.348 118.35 223.348 119.766C223.348 125.697 228.952 121.725 233.584 123.197C232.334 126.516 227.98 124.009 226.07 124.502C225.307 124.718 224.876 125.211 224.327 125.586C224.494 128.69 225.251 127.28 226.723 127.982C227.598 128.364 227.869 129.996 228.355 130.87C232.438 130.329 236.466 129.725 240.605 129.725C243.272 129.725 247.3 134.19 248.23 136.204C248.772 137.398 248.445 136.697 249.098 137.565C249.807 138.6 251.765 145.301 251.932 146.169ZM207.994 161.03C209.577 162.225 210.39 164.572 210.39 167.016C211.973 167.016 214.473 167.183 214.473 168.704C213.39 169.683 210.938 168.815 209.251 169.468C207.994 170.28 207.452 174.53 211.043 174.259C214.313 173.989 214.473 171.1 216.709 171.266C217.036 176.982 215.293 174.259 213.765 178.884C213.494 179.752 213.661 180.301 213.494 181.391C208.327 181.662 206.307 181.877 206.307 186.287C211.043 187.815 209.522 186.725 213.987 185.579C219.536 189.884 215.126 190.482 224.383 194.621C226.452 195.544 227.216 196.308 229.119 195.162C228.577 191.246 224.82 191.301 224.598 189.336C227.432 189.558 229.286 191.516 232.112 192.169C234.07 186.558 232.494 186.454 230.647 184.273C227.758 180.898 227.105 181.28 227.272 176.704C231.3 177.357 229.938 182.53 234.293 182.426C237.452 182.371 238.813 174.968 238.702 174.745C237.883 172.843 237.07 173.933 235.709 172.843L233.043 170.447C227.98 166.204 228.251 169.308 228.195 165.329C229.063 165.273 229.23 165.225 229.668 164.954C229.668 164.732 228.793 158.634 228.355 159.343C228.3 159.447 228.084 159.232 227.925 159.127C226.237 158.197 227.05 158.579 225.959 157.544C224.494 156.239 224.494 157.433 223.022 156.072C220.355 153.572 221.772 152.482 217.418 153.357C216.925 152.641 216.438 152.266 215.786 151.558C214.911 150.523 213.932 148.343 213.279 147.037C212.459 145.405 212.737 146.877 212.786 144.697C208.161 143.551 212.3 143.884 204.786 143.884C203.425 143.884 204.348 144.482 201.904 144.586C201.244 144.641 201.14 144.537 200.536 144.752C199.723 145.023 200.758 144.919 199.286 145.516C196.237 141.648 190.793 148.509 189.376 151.614C188.945 152.426 188.182 155.1 187.8 155.752C189.654 157.218 189.869 156.183 191.39 158.364C190.251 160.266 190.307 159.072 189.487 162.065C193.737 163.044 199.883 163.1 204.459 162.558C207.237 162.176 206.362 161.683 207.994 161.03ZM181.702 216.391C184.807 217.489 187.584 219.058 190.307 220.801C192.862 222.44 194.987 220.968 196.675 222.926C197.598 225.051 195.147 230.926 198.577 232.78L201.3 234.357C205.168 232.454 201.904 229.572 201.904 226.579L202.39 223.579C202.932 221.836 202.175 222.822 203.862 222.169C205.932 221.454 205.279 221.183 206.258 219.225C207.293 217.211 207.07 217.593 206.584 215.03C205.765 210.461 202.932 209.482 204.459 207.572C205.932 205.725 205.82 206.759 205.765 203.433C205.765 201.641 205.82 199.843 205.765 198.051C205.765 193.634 204.244 194.509 215.563 194.621C216.327 195.759 218.452 198.051 219.376 198.704C220.682 199.516 221.063 198.975 221.716 200.502C223.619 204.857 221.119 207.197 220.952 208.829C222.098 208.829 222.966 208.447 223.675 208.662C225.688 209.211 225.584 211.114 228.3 208.225C230.702 205.725 228.952 204.801 230.369 203.058C232.279 200.718 233.911 204.69 234.508 206.051C235.432 207.954 236.522 209.537 237.286 211.551C237.397 211.822 237.501 212.093 237.612 212.475C237.883 213.127 238.05 213.183 238.154 213.565C238.758 215.634 235.869 215.634 239.522 218.461C240.661 219.336 241.258 220.371 242.188 221.454L246.161 221.676L247.522 224.725C247.633 225.051 247.793 225.593 248.008 225.864C249.098 227.28 247.904 225.919 248.883 226.523C249.591 226.961 249.313 226.627 249.751 227.232C251.383 229.294 250.675 232.836 250.675 235.773C250.675 237.627 249.48 236.697 249.751 239.641C251.55 240.294 251.383 240.183 253.675 240.239C254.327 241.822 254.272 240.78 254.598 243.072C254.813 244.648 255.195 244.704 256.07 245.739C257.48 247.426 257.265 250.093 254.543 249.496C250.3 248.565 251.279 246.28 242.133 246.28C242.563 244.704 243.438 243.836 244.036 242.364C244.8 240.509 246.598 237.357 246.432 235.669C243.383 235.016 243.223 236.537 242.945 237.794C242.077 237.898 236.362 238.607 235.869 238.933C236.251 239.426 236.744 239.475 237.501 239.475L237.452 242.419C232.932 242.419 234.237 242.364 232.279 239.968C230.918 238.28 228.251 239.259 226.452 240.023C223.57 241.162 223.515 241.058 222.098 243.614C220.897 245.739 218.883 245.954 218.723 248.294C221.445 248.023 221.063 245.412 224.327 243.287C225.633 242.419 228.793 240.405 230.536 241.058C233.966 242.308 229.063 244.648 232.55 247.641C233.313 248.239 234.348 248.405 235.161 248.843C237.612 249.926 239.084 249.544 241.64 249.002C241.64 252.162 241.751 251.614 240.063 253.308C238.758 254.502 238.154 254.773 236.14 255.1C234.348 255.371 234.07 256.35 232.661 257.336C230.918 258.53 230.918 258.475 228.355 258.475C227.813 255.426 229.39 256.954 229.39 254.669C226.126 254.447 227.869 255.482 225.202 256.19C223.73 256.572 223.022 256.683 221.932 257.662L219.487 259.947C218.883 260.926 219.432 262.669 219.432 264.086C217.633 264.683 215.945 265.28 214.473 266.426C212.355 268.002 212.682 268.551 211.536 271.107C210.772 272.85 210.015 274.322 209.355 276.551C207.619 282.482 208.161 280.523 205.057 283.627C203.313 285.371 200.161 286.787 198.904 288.912C196.348 293.371 201.466 295.114 201.411 302.357L201.355 303.607C200.432 303.607 199.452 303.607 198.744 303.336C197.494 302.843 196.133 299.308 195.64 297.891C193.682 292.614 193.682 291.468 183.39 292.718L182.959 294.572C179.251 295.114 179.195 293.1 175.932 293.1C174.133 293.1 170.161 296.371 170.161 297.947C170.161 308.669 169.237 305.78 172.341 311.662C173.154 313.19 173.807 314.933 175.605 315.364C179.577 316.294 182.522 313.898 183.119 309.919C186.709 309.919 186.057 309.537 188.508 311.009C188.341 314.058 187.473 314.496 187.473 320.266C189.432 321.461 192.647 321.683 194.932 322.662C197.654 323.857 196.786 327.614 196.786 331.204C197.216 331.968 198.251 332.898 198.855 333.329C200.209 334.475 200.32 334.093 202.008 333.933C207.293 333.329 205.057 334.69 208.598 335.565C210.015 334.69 210.557 333.002 212.626 332.079C213.494 331.752 214.584 331.482 215.508 331.155C218.779 329.954 214.098 327.072 223.841 331.808L226.508 333.225C229.557 334.634 235.001 332.732 236.959 333.933C238.209 334.69 237.341 334.912 238.32 335.725C239.084 336.266 240.932 336.544 242.619 337.794C243.876 338.718 247.3 341.822 248.23 342.044C252.744 343.127 257.647 341.28 261.022 348.197C263.577 353.586 259.987 352.002 266.195 353.204C267.501 353.419 268.265 353.746 269.626 354.176C274.793 355.759 273.925 356.794 277.682 356.252C280.619 355.815 287.918 359.732 290.633 360.711C290.633 367.086 289.98 366.107 286.286 369.593C284.918 370.843 283.397 371.544 282.793 372.801C282.418 373.398 281.876 376.829 281.438 378.079C280.459 380.857 278.39 384.287 275.938 385.864C274.633 386.739 271.202 385.593 265.647 389.239C264.126 390.273 264.015 392.94 259.605 396.482C258.793 397.134 258.355 397.19 257.758 397.843C256.557 399.148 257.702 398.877 255.688 399.308C249.209 400.565 251.765 402.794 246.647 403.447C245.07 403.669 242.515 404.266 241.425 404.919C238.702 406.607 237.397 409.002 235.057 410.308C234.459 410.634 235.001 410.308 234.459 410.69C234.07 410.961 232.987 411.836 230.591 410.634C229.063 409.926 227.272 410.475 225.529 410.037C225.362 407.371 224.272 409.871 225.362 407.315C225.959 405.843 225.959 405.19 225.036 404.211C222.584 401.655 222.64 401.655 224.057 398.336C225.688 394.412 223.404 394.468 224.383 391.746C224.709 390.982 224.709 391.634 224.82 390.218L224.98 381.016C224.765 379.877 225.036 380.912 224.438 380.093C223.188 378.461 223.73 378.405 221.557 377.537C214.695 374.704 214.202 373.343 210.063 367.794C209.466 366.975 209.195 366.377 208.647 365.725C200.105 354.94 204.244 360.44 203.425 353.857C203.313 352.655 203.313 351.461 203.369 350.211C204.73 349.009 208.216 345.579 208.216 343.565C208.216 341.607 206.473 337.523 204.459 337.523C198.418 337.523 201.793 339.107 195.911 335.669C192.48 333.6 190.848 328.211 187.202 326.905C185.897 326.475 185.897 326.475 184.751 325.871C183.445 325.162 183.063 325.544 182.084 325.114C181.161 324.676 181.432 324.183 180.182 323.53C178.765 322.718 179.195 323.148 178.112 322.065C176.695 320.593 174.626 321.023 172.723 320.864C170.98 320.704 169.834 319.447 168.147 318.739C163.3 316.676 158.675 313.947 157.202 308.725C156.223 305.183 153.668 303.114 151.709 300.287L144.355 288.586C143.543 287.489 144.251 288.093 143.272 287.822C142.89 288.961 142.994 289.127 143.647 289.947C145.286 292.065 143.869 292.065 145.23 293.155L146.695 295.44C147.188 296.586 147.73 297.454 148.494 298.704C149.64 300.558 153.452 302.627 150.563 304.912C147.682 304.53 145.445 298.433 143.925 296.308C142.779 294.787 142.07 293.044 141.251 291.412C139.73 288.419 139.022 282.864 136.3 280.794C133.362 278.669 128.459 268.218 128.459 265.607C128.459 261.634 127.973 257.662 128.841 253.627C129.112 252.218 129.709 252.433 128.952 250.801C127.647 248.079 129.494 247.752 127.043 244.759C123.619 240.565 126.612 239.204 124.654 235.447C124.161 234.523 123.945 234.03 123.07 233.384C121.55 232.239 125.355 227.989 119.695 227.989C119.695 225.815 118.334 223.419 118.063 221.134C117.897 219.877 118.279 220.315 117.626 219.336L115.779 216.662C114.522 215.523 114.147 216.121 113.272 216.829C111.966 217.919 112.563 217.155 111.48 217.648C110.39 218.079 110.008 219.718 109.626 220.801C108.48 224.232 110.168 227.009 106.522 227.933C105.432 226.03 106.682 224.343 105.598 223.197C104.945 226.739 104.237 224.836 103.688 227.28C106.682 211.655 112.022 196.85 119.313 183.19C119.098 183.732 119.043 184.162 119.098 184.44C120.244 185.148 121.55 183.787 122.911 183.35C124.702 182.801 125.904 182.968 128.077 182.864C128.57 182.044 128.626 181.551 129.112 180.739C129.605 179.919 130.202 179.433 130.695 178.829C132.925 176.329 133.362 177.037 136.3 177.037C138.043 177.037 140.709 175.023 142.341 174.968C143.598 174.968 146.098 175.62 147.404 176.218C148.39 176.6 148.223 176.489 148.82 177.037L148.55 179.593C149.202 179.919 151.654 178.78 154.376 178.78C155.682 178.78 155.411 179.864 156.39 180.516C156.827 180.843 156.876 180.794 157.48 180.898C157.529 178.454 158.022 178.725 156.605 177.141C155.355 175.725 156.063 176.058 154.05 176.058C152.744 176.058 153.175 177.85 151.001 175.454C149.202 173.44 149.473 174.745 147.459 173.711C147.077 171.697 148.168 170.996 149.744 170.558C152.084 169.961 151.598 170.176 153.015 168.6C151.112 167.669 150.834 169.308 148.168 168.759C147.404 167.725 148.168 168.704 147.786 167.891L146.369 165.495C145.557 166.69 145.063 166.523 143.98 167.669C142.994 168.759 142.619 168.982 140.709 168.6C140.55 164.732 143.925 158.905 146.591 156.023C147.626 154.933 150.452 154.607 152.14 154.607C153.723 154.607 156.175 156.676 156.987 157.384C157.855 158.086 158.293 158.579 159.057 159.176L160.091 160.051C160.904 160.919 159.82 160.648 161.341 160.919C161.397 160.864 161.452 160.704 161.452 160.759C161.612 161.357 161.612 160.377 161.612 160.266C162.32 158.148 162.487 155.968 163.466 153.898C164.286 152.322 168.258 148.996 168.258 152.752C168.258 154.169 167.279 155.148 166.022 155.475C166.022 157.433 165.918 159.725 166.022 161.627C166.188 165.655 170.432 162.933 169.237 167.127C168.966 168.162 168.313 168.377 167.55 168.919C168.418 173.391 166.3 172.19 164.334 172.843L163.682 173.114L163.466 173.225L163.084 173.44L162.869 173.551C162.869 173.551 162.758 173.607 162.702 173.662C163.084 174.475 164.39 175.127 165.154 175.891L168.966 175.836C170.161 174.586 170.925 174.044 171.737 172.023C172.557 170.009 172.445 168.982 173.973 167.343C177.022 167.343 175.063 168.162 176.911 168.759C177.841 168.759 179.529 168.87 178.925 167.509C178.709 166.968 176.751 166.475 176.751 165.114C176.751 159.343 177.89 160.704 178.925 158.905C179.959 157.114 178.82 157.544 181.973 157.544C183.279 157.544 184.098 161.572 184.098 162.877C184.098 165.329 183.279 164.023 184.64 166.204C185.515 167.614 185.244 168.6 185.786 169.905C186.98 169.523 187.529 167.836 187.855 166.586C188.07 166.801 188.182 166.857 188.237 166.857C188.237 166.905 188.237 167.016 188.397 167.287C188.508 167.558 188.563 167.947 188.675 168.218C189.654 168.107 189.376 167.891 190.14 168.266C190.14 170.009 189.001 172.357 189.758 174.093C190.793 174.419 191.015 174.204 191.883 173.766C192.098 172.627 192.043 171.537 192.536 170.558C193.084 169.357 193.793 169.197 194.334 168.266C194.876 166.037 192.32 161.794 201.244 165.44C201.3 166.968 200.918 168.544 200.918 169.85C200.918 173.822 202.279 173.989 199.182 176.926C198.195 177.801 198.418 178.343 197.057 179.704C197.216 180.898 197.438 180.572 197.383 181.496C197.272 182.482 196.945 182.259 196.786 183.461C198.362 185.475 201.626 187.162 201.195 190.315C199.23 191.35 198.855 189.773 196.182 189.502C195.64 191.683 195.855 191.134 193.355 191.461C191.772 191.683 190.251 190.864 190.029 189.614C189.654 187.759 191.39 187.648 191.39 186.016C191.39 184.766 191.23 184.058 190.522 183.509C188.945 185.037 191.772 186.016 186.112 189.829C181.216 193.148 184.536 194.398 181.161 195.648C177.293 197.121 179.577 196.579 176.584 201.912C175.063 204.69 173.758 206.377 175.605 210.134C177.459 211.169 177.133 209.482 177.786 212.037C178.438 214.871 178.98 215.523 181.702 216.391Z" fill="#2E5F4A"/>
</g>
</g>
</g>
</g>
</g>
<g filter="url(#filter4_d_203_1929)">
<path d="M46.8667 240C42.3593 240.023 39.0087 240.768 36.584 242.055C34.7747 243.015 34.0667 243.742 34.0667 246.202V272C36.838 269 39.2973 268.16 49 268.16V240H46.8667ZM19.1333 240C23.6407 240.023 26.9913 240.768 29.416 242.055C31.2253 243.015 31.9333 243.742 31.9333 246.202V272C29.162 269 26.7027 268.16 17 268.16V240H19.1333Z" fill="#2E5F4A"/>
<path d="M19.1309 240.5L19.9531 240.513C23.7247 240.61 26.5927 241.244 28.7334 242.271L29.1816 242.497C30.0781 242.973 30.6079 243.345 30.9365 243.842C31.2602 244.331 31.4336 245.011 31.4336 246.202V270.788C30.2729 269.714 29.0217 268.964 27.1963 268.473C25.0297 267.89 22.0654 267.676 17.5 267.662V240.5H19.1309ZM48.5 240.5V267.662C43.9346 267.676 40.9703 267.89 38.8037 268.473C36.9783 268.964 35.7271 269.714 34.5664 270.788V246.202C34.5664 245.011 34.7398 244.331 35.0635 243.842C35.351 243.407 35.7926 243.068 36.499 242.671L36.8184 242.497C39.0017 241.338 42.0056 240.617 46.0469 240.513L46.8691 240.5H48.5Z" stroke="black"/>
</g>
<g filter="url(#filter5_d_203_1929)">
<path d="M504.867 240C500.359 240.023 497.009 240.768 494.584 242.055C492.775 243.015 492.067 243.742 492.067 246.202V272C494.838 269 497.297 268.16 507 268.16V240H504.867ZM477.133 240C481.641 240.023 484.991 240.768 487.416 242.055C489.225 243.015 489.933 243.742 489.933 246.202V272C487.162 269 484.703 268.16 475 268.16V240H477.133Z" fill="#2E5F4A"/>
<path d="M477.131 240.5L477.953 240.513C481.725 240.61 484.593 241.244 486.733 242.271L487.182 242.497C488.078 242.973 488.608 243.345 488.937 243.842C489.26 244.331 489.434 245.011 489.434 246.202V270.788C488.273 269.714 487.022 268.964 485.196 268.473C483.03 267.89 480.065 267.676 475.5 267.662V240.5H477.131ZM506.5 240.5V267.662C501.935 267.676 498.97 267.89 496.804 268.473C494.978 268.964 493.727 269.714 492.566 270.788V246.202C492.566 245.011 492.74 244.331 493.063 243.842C493.351 243.407 493.793 243.068 494.499 242.671L494.818 242.497C497.002 241.338 500.006 240.617 504.047 240.513L504.869 240.5H506.5Z" stroke="black"/>
</g>
<defs>
<filter id="filter0_d_203_1929" x="0" y="0" width="520" height="520" filterUnits="userSpaceOnUse" color-interpolation-filters="sRGB">
<feFlood flood-opacity="0" result="BackgroundImageFix"/>
<feColorMatrix in="SourceAlpha" type="matrix" values="0 0 0 0 0 0 0 0 0 0 0 0 0 0 0 0 0 0 127 0" result="hardAlpha"/>
<feOffset dy="4"/>
<feGaussianBlur stdDeviation="2"/>
<feComposite in2="hardAlpha" operator="out"/>
<feColorMatrix type="matrix" values="0 0 0 0 0 0 0 0 0 0 0 0 0 0 0 0 0 0 0.25 0"/>
<feBlend mode="normal" in2="BackgroundImageFix" result="effect1_dropShadow_203_1929"/>
<feBlend mode="normal" in="SourceGraphic" in2="effect1_dropShadow_203_1929" result="shape"/>
</filter>
<filter id="filter1_d_203_1929" x="23.0405" y="32.6733" width="476.959" height="479.327" filterUnits="userSpaceOnUse" color-interpolation-filters="sRGB">
<feFlood flood-opacity="0" result="BackgroundImageFix"/>
<feColorMatrix in="SourceAlpha" type="matrix" values="0 0 0 0 0 0 0 0 0 0 0 0 0 0 0 0 0 0 127 0" result="hardAlpha"/>
<feOffset dy="16"/>
<feGaussianBlur stdDeviation="17"/>
<feComposite in2="hardAlpha" operator="out"/>
<feColorMatrix type="matrix" values="0 0 0 0 0 0 0 0 0 0 0 0 0 0 0 0 0 0 0.25 0"/>
<feBlend mode="normal" in2="BackgroundImageFix" result="effect1_dropShadow_203_1929"/>
<feBlend mode="normal" in="SourceGraphic" in2="effect1_dropShadow_203_1929" result="shape"/>
</filter>
<filter id="filter2_d_203_1929" x="108.965" y="87.3335" width="317.572" height="347.677" filterUnits="userSpaceOnUse" color-interpolation-filters="sRGB">
<feFlood flood-opacity="0" result="BackgroundImageFix"/>
<feColorMatrix in="SourceAlpha" type="matrix" values="0 0 0 0 0 0 0 0 0 0 0 0 0 0 0 0 0 0 127 0" result="hardAlpha"/>
<feOffset dy="8"/>
<feGaussianBlur stdDeviation="2"/>
<feComposite in2="hardAlpha" operator="out"/>
<feColorMatrix type="matrix" values="0 0 0 0 0 0 0 0 0 0 0 0 0 0 0 0 0 0 0.25 0"/>
<feBlend mode="normal" in2="BackgroundImageFix" result="effect1_dropShadow_203_1929"/>
<feBlend mode="normal" in="SourceGraphic" in2="effect1_dropShadow_203_1929" result="shape"/>
</filter>
<filter id="filter3_d_203_1929" x="99.6885" y="101.252" width="231.895" height="325.89" filterUnits="userSpaceOnUse" color-interpolation-filters="sRGB">
<feFlood flood-opacity="0" result="BackgroundImageFix"/>
<feColorMatrix in="SourceAlpha" type="matrix" values="0 0 0 0 0 0 0 0 0 0 0 0 0 0 0 0 0 0 127 0" result="hardAlpha"/>
<feOffset dy="12"/>
<feGaussianBlur stdDeviation="2"/>
<feComposite in2="hardAlpha" operator="out"/>
<feColorMatrix type="matrix" values="0 0 0 0 0 0 0 0 0 0 0 0 0 0 0 0 0 0 0.25 0"/>
<feBlend mode="normal" in2="BackgroundImageFix" result="effect1_dropShadow_203_1929"/>
<feBlend mode="normal" in="SourceGraphic" in2="effect1_dropShadow_203_1929" result="shape"/>
</filter>
<filter id="filter4_d_203_1929" x="13" y="240" width="40" height="40" filterUnits="userSpaceOnUse" color-interpolation-filters="sRGB">
<feFlood flood-opacity="0" result="BackgroundImageFix"/>
<feColorMatrix in="SourceAlpha" type="matrix" values="0 0 0 0 0 0 0 0 0 0 0 0 0 0 0 0 0 0 127 0" result="hardAlpha"/>
<feOffset dy="4"/>
<feGaussianBlur stdDeviation="2"/>
<feComposite in2="hardAlpha" operator="out"/>
<feColorMatrix type="matrix" values="0 0 0 0 0 0 0 0 0 0 0 0 0 0 0 0 0 0 0.25 0"/>
<feBlend mode="normal" in2="BackgroundImageFix" result="effect1_dropShadow_203_1929"/>
<feBlend mode="normal" in="SourceGraphic" in2="effect1_dropShadow_203_1929" result="shape"/>
</filter>
<filter id="filter5_d_203_1929" x="471" y="240" width="40" height="40" filterUnits="userSpaceOnUse" color-interpolation-filters="sRGB">
<feFlood flood-opacity="0" result="BackgroundImageFix"/>
<feColorMatrix in="SourceAlpha" type="matrix" values="0 0 0 0 0 0 0 0 0 0 0 0 0 0 0 0 0 0 127 0" result="hardAlpha"/>
<feOffset dy="4"/>
<feGaussianBlur stdDeviation="2"/>
<feComposite in2="hardAlpha" operator="out"/>
<feColorMatrix type="matrix" values="0 0 0 0 0 0 0 0 0 0 0 0 0 0 0 0 0 0 0.25 0"/>
<feBlend mode="normal" in2="BackgroundImageFix" result="effect1_dropShadow_203_1929"/>
<feBlend mode="normal" in="SourceGraphic" in2="effect1_dropShadow_203_1929" result="shape"/>
</filter>
</defs>
</svg>
